<svg xmlns="http://www.w3.org/2000/svg" version="1.1" xmlns:xlink="http://www.w3.org/1999/xlink" xmlns:svgjs="http://svgjs.dev/svgjs" width="2000" height="1999" viewBox="0 0 2000 1999"><g transform="matrix(1,0,0,1,-0.431486880466764,-0.4312711370263287)"><svg viewBox="0 0 343 343" data-background-color="#ffffff" preserveAspectRatio="xMidYMid meet" height="1999" width="2000" xmlns="http://www.w3.org/2000/svg" xmlns:xlink="http://www.w3.org/1999/xlink"><g id="tight-bounds" transform="matrix(1,0,0,1,0.0740000000000407,0.07400000000001228)"><svg viewBox="0 0 342.85155851775386 342.85155851775386" height="342.85155851775386" width="342.85155851775386"><g><svg></svg></g><g><svg viewBox="0 0 342.85155851775386 342.85155851775386" height="342.85155851775386" width="342.85155851775386"><g><path d="M0 171.426c0-94.676 76.75-171.426 171.426-171.426 94.676 0 171.426 76.75 171.426 171.426 0 94.676-76.75 171.426-171.426 171.426-94.676 0-171.426-76.75-171.426-171.426zM171.426 331.736c88.537 0 160.311-71.773 160.31-160.31 0-88.537-71.773-160.311-160.31-160.311-88.537 0-160.311 71.773-160.311 160.311 0 88.537 71.773 160.311 160.311 160.31z" data-fill-palette-color="tertiary" fill="#000000" stroke="transparent"></path><ellipse rx="164.56874808852186" ry="164.56874808852186" cx="171.42577925887693" cy="171.42577925887693" fill="#000000" stroke="transparent" stroke-width="0" fill-opacity="1" data-fill-palette-color="tertiary"></ellipse></g><g transform="matrix(1,0,0,1,64.84655864529837,109.79862046866121)"><svg viewBox="0 0 213.1584412271571 123.25431758043143" height="123.25431758043143" width="213.1584412271571"><g><svg viewBox="0 0 213.1584412271571 123.25431758043143" height="123.25431758043143" width="213.1584412271571"><g><svg viewBox="0 0 213.1584412271571 123.25431758043143" height="123.25431758043143" width="213.1584412271571"><g><svg viewBox="0 0 213.1584412271571 123.25431758043143" height="123.25431758043143" width="213.1584412271571"><g id="textblocktransform"><svg viewBox="0 0 213.1584412271571 123.25431758043143" height="123.25431758043143" width="213.1584412271571" id="textblock"><g><svg viewBox="0 0 213.1584412271571 123.25431758043143" height="123.25431758043143" width="213.1584412271571"><g transform="matrix(1,0,0,1,0,0)"><svg width="213.1584412271571" viewBox="0.98 -34.64 59.910000000000004 34.64" height="123.25431758043143" data-palette-color="#000000"><path d="M22.97 0L7.96 0Q7.54 0 7.34-0.49 7.13-0.98 7.13-1.25L7.13-1.25Q7.13-2.05 7.93-2.15L7.93-2.15Q9.08-2.22 10.24-2.4 11.4-2.59 12.17-3.06 12.94-3.54 12.94-4.44L12.94-4.44 12.96-32.23 6.76-32.23Q5.71-32.23 5.03-31.25 4.35-30.27 3.94-28.89 3.54-27.51 3.36-26.25 3.17-24.98 3.13-24.39L3.13-24.39Q3.03-23.58 2.22-23.58L2.22-23.58Q1.95-23.58 1.45-23.79 0.95-24 0.98-24.41L0.98-24.41Q1.03-25.61 1.11-27.33 1.2-29.05 1.32-30.73 1.44-32.4 1.56-33.52 1.68-34.64 1.83-34.64L1.83-34.64 29.13-34.64Q29.27-34.64 29.39-33.52 29.52-32.4 29.64-30.73 29.76-29.05 29.85-27.33 29.93-25.61 29.96-24.41L29.96-24.41Q29.96-24 29.47-23.79 28.98-23.58 28.71-23.58L28.71-23.58Q27.91-23.58 27.81-24.39L27.81-24.39Q27.76-24.98 27.58-26.25 27.39-27.51 27-28.89 26.61-30.27 25.93-31.25 25.24-32.23 24.19-32.23L24.19-32.23 18.02-32.23 17.99-4.52Q17.99-3.47 18.81-2.99 19.63-2.51 20.79-2.37 21.95-2.22 22.92-2.15L22.92-2.15Q23.44-2.1 23.62-1.95 23.8-1.81 23.8-1.25L23.8-1.25Q23.8-0.98 23.6-0.49 23.39 0 22.97 0L22.97 0ZM53.9 0L38.89 0Q38.47 0 38.27-0.49 38.06-0.98 38.06-1.25L38.06-1.25Q38.06-2.05 38.86-2.15L38.86-2.15Q40.01-2.22 41.17-2.4 42.33-2.59 43.1-3.06 43.87-3.54 43.87-4.44L43.87-4.44 43.89-32.23 37.69-32.23Q36.64-32.23 35.96-31.25 35.28-30.27 34.87-28.89 34.47-27.51 34.29-26.25 34.1-24.98 34.06-24.39L34.06-24.39Q33.96-23.58 33.15-23.58L33.15-23.58Q32.88-23.58 32.38-23.79 31.88-24 31.91-24.41L31.91-24.41Q31.96-25.61 32.04-27.33 32.13-29.05 32.25-30.73 32.37-32.4 32.49-33.52 32.61-34.64 32.76-34.64L32.76-34.64 60.06-34.64Q60.2-34.64 60.32-33.52 60.45-32.4 60.57-30.73 60.69-29.05 60.78-27.33 60.86-25.61 60.89-24.41L60.89-24.41Q60.89-24 60.4-23.79 59.91-23.58 59.64-23.58L59.64-23.58Q58.84-23.58 58.74-24.39L58.74-24.39Q58.69-24.98 58.51-26.25 58.32-27.51 57.93-28.89 57.54-30.27 56.86-31.25 56.17-32.23 55.12-32.23L55.12-32.23 48.95-32.23 48.92-4.52Q48.92-3.47 49.74-2.99 50.56-2.51 51.72-2.37 52.88-2.22 53.85-2.15L53.85-2.15Q54.37-2.1 54.55-1.95 54.73-1.81 54.73-1.25L54.73-1.25Q54.73-0.98 54.53-0.49 54.32 0 53.9 0L53.9 0Z" opacity="1" transform="matrix(1,0,0,1,0,0)" fill="#ffffff" class="wordmark-text-0" data-fill-palette-color="quaternary" id="text-0"></path></svg></g></svg></g></svg></g></svg></g><g></g></svg></g></svg></g></svg></g></svg></g><defs></defs></svg><rect width="342.85155851775386" height="342.85155851775386" fill="none" stroke="none" visibility="hidden"></rect></g></svg></g></svg>